<?xml version="1.0" encoding="UTF-8"?>
<svg class="lucide lucide-list-icon lucide-list" width="16" height="16" fill="none" stroke="#ffffff" stroke-linecap="round" stroke-linejoin="round" stroke-width="1.5" version="1.1" viewBox="0 0 2048 2048" xmlns="http://www.w3.org/2000/svg">
 <g fill="#fff" stroke="none">
  <path d="m78.77 210.05a78.769 78.769 0 0 0-78.77 78.768 78.769 78.769 0 0 0 78.77 78.77h1.0488a78.769 78.769 0 0 0 78.77-78.77 78.769 78.769 0 0 0-78.77-78.768z" stop-color="#000000"/>
  <path d="m78.77 945.23a78.769 78.769 0 0 0-78.77 78.77 78.769 78.769 0 0 0 78.77 78.77h1.0488a78.769 78.769 0 0 0 78.77-78.77 78.769 78.769 0 0 0-78.77-78.77z" stop-color="#000000"/>
  <path d="m78.77 1680.4a78.769 78.769 0 0 0-78.77 78.77 78.769 78.769 0 0 0 78.77 78.77h1.0488a78.769 78.769 0 0 0 78.77-78.77 78.769 78.769 0 0 0-78.77-78.77z" stop-color="#000000"/>
  <path d="m603.9 210.05a78.769 78.769 0 0 0-78.768 78.768 78.769 78.769 0 0 0 78.768 78.77h1365.3a78.769 78.769 0 0 0 78.77-78.77 78.769 78.769 0 0 0-78.77-78.768z" stop-color="#000000"/>
  <path d="m603.9 945.23a78.769 78.769 0 0 0-78.768 78.77 78.769 78.769 0 0 0 78.768 78.77h1365.3a78.769 78.769 0 0 0 78.77-78.77 78.769 78.769 0 0 0-78.77-78.77z" stop-color="#000000"/>
  <path d="m603.9 1680.4a78.769 78.769 0 0 0-78.768 78.77 78.769 78.769 0 0 0 78.768 78.77h1365.3a78.769 78.769 0 0 0 78.77-78.77 78.769 78.769 0 0 0-78.77-78.77z" stop-color="#000000"/>
 </g>
</svg>
